<svg width="965" height="413" viewBox="0 0 965 413" fill="none" xmlns="http://www.w3.org/2000/svg">
<path d="M465.622 12.0278C379.678 12.0278 317.971 67.1672 317.971 195.826C317.971 341.639 379.678 380.236 465.622 380.236C551.566 380.236 616.949 337.963 616.949 195.826C616.949 43.8861 551.566 12.0278 465.622 12.0278ZM466.187 331.836C406.66 331.836 375.561 296.913 375.561 195.92C375.561 106.808 407.933 59.8153 467.46 59.8153C526.987 59.8153 559.359 90.6831 559.359 195.92C559.359 294.367 525.713 331.836 466.187 331.836Z" fill="#2F2E41"/>
<path d="M266.507 278.535H230.973V173.895C230.973 168.338 228.765 163.007 224.835 159.077C220.905 155.147 215.575 152.94 210.017 152.94H201.69C198.939 152.94 196.213 153.482 193.671 154.535C191.129 155.588 188.818 157.132 186.872 159.077C184.927 161.023 183.383 163.334 182.33 165.876C181.277 168.419 180.735 171.144 180.735 173.895V278.535H80.5045C78.4426 278.535 76.4156 278.002 74.6203 276.988C72.8251 275.974 71.3224 274.513 70.2581 272.747C69.1938 270.981 68.604 268.969 68.546 266.908C68.4879 264.847 68.9636 262.806 69.9269 260.983L176.009 60.2025C177.332 57.6993 178.133 54.954 178.366 52.1325C178.598 49.3109 178.256 46.4715 177.361 43.7857C176.466 41.0998 175.035 38.6233 173.156 36.5055C171.277 34.3877 168.989 32.6725 166.429 31.4636L160.167 28.5065C155.304 26.2102 149.745 25.8712 144.639 27.5594C139.534 29.2477 135.272 32.8341 132.737 37.5765L3.35583 279.609C1.15265 283.731 -4.34911e-07 288.332 0 293.005V293.005C0 296.737 0.734995 300.432 2.16302 303.879C3.59105 307.327 5.68415 310.46 8.32281 313.098C10.9615 315.737 14.094 317.83 17.5416 319.258C20.9891 320.686 24.6842 321.421 28.4158 321.421H180.735V387.588C180.735 390.887 181.384 394.153 182.647 397.201C183.909 400.248 185.759 403.018 188.092 405.35C190.424 407.683 193.193 409.533 196.241 410.795C199.289 412.058 202.555 412.707 205.854 412.707H205.854C209.152 412.707 212.419 412.058 215.466 410.795C218.514 409.533 221.283 407.683 223.615 405.35C225.948 403.018 227.798 400.248 229.061 397.201C230.323 394.153 230.973 390.887 230.973 387.588V321.421H266.507C272.194 321.421 277.648 319.162 281.669 315.14C285.691 311.119 287.95 305.665 287.95 299.978V299.978C287.95 294.291 285.691 288.837 281.67 284.815C277.648 280.794 272.194 278.535 266.507 278.535V278.535Z" fill="#835AFD"/>
<path d="M924.504 278.535H888.969V173.895C888.969 168.338 886.761 163.007 882.831 159.077C878.901 155.147 873.571 152.94 868.013 152.94H859.687C856.935 152.94 854.21 153.482 851.668 154.535C849.125 155.588 846.815 157.132 844.869 159.077C842.923 161.023 841.379 163.334 840.326 165.876C839.273 168.419 838.731 171.144 838.731 173.895V278.535H738.501C736.439 278.535 734.412 278.002 732.617 276.988C730.822 275.974 729.319 274.513 728.255 272.747C727.19 270.981 726.601 268.969 726.543 266.908C726.485 264.847 726.96 262.806 727.923 260.983L834.006 60.2026C835.328 57.6993 836.13 54.9541 836.362 52.1325C836.595 49.3109 836.253 46.4715 835.357 43.7857C834.462 41.0998 833.032 38.6233 831.153 36.5055C829.274 34.3877 826.986 32.6726 824.425 31.4636L818.163 28.5065C813.301 26.2102 807.741 25.8712 802.636 27.5594C797.53 29.2477 793.269 32.8341 790.734 37.5765L661.352 279.609C659.149 283.731 657.997 288.332 657.997 293.005V293.005C657.997 300.542 660.99 307.769 666.319 313.098C671.648 318.427 678.876 321.421 686.412 321.421H838.731V387.588C838.731 394.25 841.378 400.639 846.088 405.35C850.799 410.061 857.188 412.707 863.85 412.707V412.707C870.512 412.707 876.901 410.061 881.612 405.35C886.323 400.639 888.969 394.25 888.969 387.588V321.421H924.503C930.19 321.421 935.645 319.162 939.666 315.14C943.687 311.119 945.947 305.665 945.947 299.978V299.978C945.947 294.291 943.687 288.837 939.666 284.815C935.645 280.794 930.191 278.535 924.504 278.535Z" fill="#835AFD"/>
<path d="M276.31 266.282H240.775V161.642C240.775 158.89 240.233 156.165 239.18 153.623C238.127 151.08 236.584 148.77 234.638 146.824C232.692 144.878 230.382 143.335 227.839 142.282C225.297 141.228 222.572 140.686 219.82 140.686H211.493C205.935 140.686 200.605 142.894 196.675 146.824C192.745 150.754 190.537 156.084 190.537 161.642V266.282H90.3073C88.2453 266.282 86.2184 265.749 84.4231 264.735C82.6278 263.72 81.1251 262.259 80.0608 260.493C78.9965 258.727 78.4067 256.716 78.3487 254.655C78.2907 252.594 78.7664 250.553 79.7296 248.73L185.812 47.9493C187.135 45.4461 187.936 42.7008 188.169 39.8793C188.401 37.0577 188.059 34.2183 187.164 31.5324C186.268 28.8466 184.838 26.37 182.959 24.2522C181.08 22.1344 178.792 20.4193 176.232 19.2104L169.969 16.2532C165.107 13.957 159.548 13.6179 154.442 15.3062C149.336 16.9944 145.075 20.5808 142.54 25.3232L13.1586 267.356C10.9554 271.477 9.80273 276.079 9.80273 280.752V280.752C9.80273 288.288 12.7965 295.516 18.1255 300.845C23.4545 306.174 30.6822 309.168 38.2186 309.168H190.537V375.335C190.537 378.634 191.187 381.9 192.449 384.948C193.712 387.995 195.562 390.764 197.895 393.097C200.227 395.429 202.996 397.28 206.044 398.542C209.091 399.804 212.358 400.454 215.656 400.454H215.656C222.318 400.454 228.708 397.808 233.418 393.097C238.129 388.386 240.775 381.997 240.775 375.335V309.168H276.31C279.126 309.168 281.914 308.613 284.516 307.536C287.117 306.458 289.481 304.878 291.472 302.887C293.463 300.896 295.043 298.532 296.12 295.931C297.198 293.329 297.753 290.541 297.753 287.725V287.725C297.753 284.909 297.198 282.12 296.121 279.519C295.043 276.917 293.463 274.553 291.472 272.562C289.481 270.571 287.117 268.992 284.516 267.914C281.914 266.836 279.126 266.282 276.31 266.282V266.282Z" stroke="#3F3D56" stroke-miterlimit="10"/>
<path d="M942.883 266.282H907.349V161.642C907.349 156.084 905.141 150.754 901.211 146.824C897.281 142.894 891.951 140.686 886.393 140.686H878.067C875.315 140.686 872.59 141.228 870.047 142.282C867.505 143.335 865.195 144.878 863.249 146.824C861.303 148.77 859.759 151.08 858.706 153.623C857.653 156.165 857.111 158.89 857.111 161.642V266.282H756.881C754.819 266.282 752.792 265.749 750.997 264.735C749.202 263.72 747.699 262.259 746.635 260.493C745.57 258.727 744.981 256.716 744.922 254.655C744.864 252.594 745.34 250.553 746.303 248.73L852.386 47.9493C853.708 45.4461 854.51 42.7008 854.742 39.8793C854.975 37.0577 854.633 34.2183 853.737 31.5324C852.842 28.8466 851.412 26.37 849.533 24.2522C847.654 22.1344 845.365 20.4193 842.805 19.2104L836.543 16.2532C831.681 13.957 826.121 13.6179 821.016 15.3062C815.91 16.9944 811.649 20.5808 809.114 25.3232L679.732 267.356C677.529 271.477 676.376 276.079 676.376 280.752C676.376 288.288 679.37 295.516 684.699 300.845C690.028 306.174 697.256 309.168 704.792 309.168H857.111V375.335C857.111 381.997 859.758 388.386 864.468 393.097C869.179 397.808 875.568 400.454 882.23 400.454V400.454C888.892 400.454 895.281 397.808 899.992 393.097C904.703 388.386 907.349 381.997 907.349 375.335V309.168H942.883C945.699 309.168 948.488 308.613 951.089 307.536C953.691 306.458 956.055 304.878 958.046 302.887C960.037 300.896 961.617 298.532 962.694 295.931C963.772 293.329 964.326 290.541 964.326 287.725V287.725C964.326 282.038 962.067 276.584 958.046 272.562C954.025 268.541 948.57 266.282 942.883 266.282V266.282Z" stroke="#3F3D56" stroke-miterlimit="10"/>
<path d="M485.227 1C399.283 1 337.576 56.1394 337.576 184.798C337.576 330.611 399.283 369.208 485.227 369.208C571.171 369.208 636.554 326.935 636.554 184.798C636.554 32.8583 571.171 1 485.227 1ZM485.792 320.808C426.265 320.808 395.166 285.886 395.166 184.892C395.166 95.7802 427.538 48.7875 487.065 48.7875C546.592 48.7875 578.964 79.6552 578.964 184.892C578.964 283.339 545.319 320.808 485.792 320.808V320.808Z" stroke="#3F3D56" stroke-miterlimit="10"/>
</svg>
